Coordinates
version=1
nRows=24
nColumns=38
inDegrees=no

Units are S.I. units (second, meters, Newtons, ...)
If the header above contains a line with 'inDegrees', this indicates whether rotational values are in degrees (yes) or radians (no).

endheader
time	pelvis_tilt	pelvis_list	pelvis_rotation	pelvis_tx	pelvis_ty	pelvis_tz	hip_flexion_r	hip_adduction_r	hip_rotation_r	knee_angle_r	ankle_angle_r	subtalar_angle_r	mtp_angle_r	hip_flexion_l	hip_adduction_l	hip_rotation_l	knee_angle_l	ankle_angle_l	subtalar_angle_l	mtp_angle_l	lumbar_extension	lumbar_bending	lumbar_rotation	arm_flex_r	arm_add_r	arm_rot_r	elbow_flex_r	pro_sup_r	wrist_flex_r	wrist_dev_r	arm_flex_l	arm_add_l	arm_rot_l	elbow_flex_l	pro_sup_l	wrist_flex_l	wrist_dev_l
2.08	3.09297	1.35739	-1.54779	0.723747	1.44229	1.01658	0.315037	-0.00502736	-0.331283	0.492852	-0.142996	0	0	-0.366074	0.0133931	-0.373563	0.360247	-0.133443	0	0	-0.503451	0.158233	0.554985	-0.56238	-0.370619	-0.73673	1.96816	0.566428	0	0	0.710061	-0.16561	0.762044	0.923837	0.666473	0	0
2.09	3.08999	1.35579	-1.54324	0.724092	1.4529	1.01481	0.309743	-0.00160994	-0.327259	0.506995	-0.142197	0	0	-0.37593	0.0112636	-0.375942	0.367915	-0.128926	0	0	-0.504137	0.162075	0.554861	-0.564797	-0.369807	-0.738889	1.96921	0.565586	0	0	0.708052	-0.163955	0.759971	0.924134	0.667596	0	0
2.1	3.08733	1.35307	-1.53868	0.724316	1.46363	1.01298	0.303694	0.00132732	-0.321355	0.529121	-0.143775	0	0	-0.38582	0.00885621	-0.382361	0.379752	-0.121331	0	0	-0.503985	0.167248	0.549241	-0.561635	-0.372508	-0.735078	1.96765	0.564962	0	0	0.702949	-0.165591	0.753388	0.925536	0.668242	0	0
2.11	3.08617	1.34895	-1.53478	0.724392	1.47451	1.01112	0.295476	0.00414267	-0.313639	0.556946	-0.147247	0	0	-0.396912	0.0069279	-0.388702	0.392989	-0.114637	0	0	-0.509045	0.171699	0.551005	-0.569096	-0.370704	-0.742135	1.97347	0.564689	0	0	0.701052	-0.162653	0.750513	0.929252	0.66969	0	0
2.12	3.08272	1.34358	-1.52792	0.724469	1.48561	1.00931	0.285048	0.00820365	-0.305606	0.586668	-0.152071	0	0	-0.408633	0.00336991	-0.396761	0.408892	-0.106558	0	0	-0.511542	0.178287	0.54456	-0.567117	-0.373237	-0.739765	1.97366	0.563289	0	0	0.695665	-0.164777	0.744233	0.932459	0.671414	0	0
2.13	3.07644	1.33776	-1.5174	0.724684	1.4967	1.00764	0.275106	0.012678	-0.299441	0.610073	-0.155038	0	0	-0.420201	-0.00138754	-0.400401	0.425199	-0.100612	0	0	-0.518046	0.184774	0.544735	-0.57324	-0.371617	-0.745896	1.97903	0.56237	0	0	0.693644	-0.162986	0.741488	0.936497	0.673455	0	0
2.14	3.05715	1.32985	-1.49439	0.72494	1.50743	1.00653	0.26771	0.0173531	-0.297858	0.623482	-0.1582	0	0	-0.431252	-0.0110214	-0.406732	0.447366	-0.0916775	0	0	-0.526746	0.19519	0.543382	-0.574729	-0.372229	-0.748021	1.98246	0.571734	0	0	0.689473	-0.161472	0.733519	0.939524	0.678073	0	0
2.15	3.03077	1.32333	-1.46556	0.725285	1.51794	1.006	0.263725	0.0240659	-0.297252	0.627821	-0.166348	0	0	-0.43917	-0.0217503	-0.408008	0.470592	-0.0887492	0	0	-0.532225	0.208067	0.537148	-0.568508	-0.3785	-0.741307	1.97994	0.573351	0	0	0.682507	-0.163549	0.724026	0.941001	0.676958	0	0
2.16	3.00148	1.31669	-1.4354	0.725885	1.52833	1.00594	0.257194	0.0350785	-0.295079	0.629191	-0.184102	0	0	-0.444492	-0.0338284	-0.408578	0.498313	-0.0876332	0	0	-0.543421	0.220061	0.5435	-0.573807	-0.377623	-0.748902	1.98523	0.577582	0	0	0.680119	-0.158765	0.719509	0.942401	0.678287	0	0
2.17	2.97503	1.31236	-1.41034	0.726929	1.53879	1.00606	0.249996	0.0483362	-0.284675	0.632199	-0.208404	0	0	-0.44518	-0.0453478	-0.408743	0.530768	-0.0884357	0	0	-0.55051	0.230256	0.547465	-0.573236	-0.37752	-0.75085	1.98607	0.583607	0	0	0.676474	-0.156755	0.714893	0.942272	0.680823	0	0
2.18	2.95515	1.3124	-1.394	0.728425	1.54931	1.00601	0.247325	0.0602525	-0.260877	0.640495	-0.229133	0	0	-0.438702	-0.0543411	-0.40695	0.568448	-0.0911056	0	0	-0.550425	0.23689	0.545692	-0.564659	-0.38028	-0.743175	1.98036	0.592226	0	0	0.670231	-0.159617	0.708259	0.941915	0.683895	0	0
2.19	2.94083	1.31571	-1.38433	0.730341	1.55975	1.00578	0.249548	0.0710358	-0.224528	0.654747	-0.235964	0	0	-0.425413	-0.061667	-0.402108	0.612785	-0.0959932	0	0	-0.551425	0.238139	0.555933	-0.567907	-0.372184	-0.750202	1.98096	0.624285	0	0	0.671204	-0.156161	0.711887	0.940229	0.685138	0	0
2.2	2.93025	1.31556	-1.37566	0.732287	1.56992	1.00609	0.246852	0.0818504	-0.19123	0.669236	-0.229714	0	0	-0.41237	-0.0703282	-0.391098	0.661357	-0.104137	0	0	-0.555001	0.239713	0.560004	-0.567897	-0.37011	-0.751236	1.97986	0.627445	0	0	0.67299	-0.156722	0.716571	0.939821	0.682085	0	0
2.21	2.92044	1.31154	-1.36397	0.734085	1.57995	1.0071	0.237492	0.0916222	-0.172535	0.679897	-0.224309	0	0	-0.399702	-0.0814977	-0.373732	0.713616	-0.114534	0	0	-0.559243	0.243973	0.554751	-0.559459	-0.371635	-0.7437	1.97421	0.625737	0	0	0.673597	-0.16096	0.718817	0.93768	0.677954	0	0
2.22	2.90967	1.30558	-1.34837	0.735568	1.58983	1.00845	0.223669	0.0987576	-0.170962	0.683496	-0.221102	0	0	-0.384396	-0.0947349	-0.353045	0.771238	-0.12836	0	0	-0.569857	0.249001	0.559023	-0.563989	-0.366633	-0.750849	1.97729	0.622381	0	0	0.680006	-0.1581	0.726965	0.935381	0.676175	0	0
2.23	2.89865	1.3023	-1.3314	0.736885	1.59959	1.00974	0.210916	0.10286	-0.180249	0.681277	-0.220275	0	0	-0.361887	-0.106877	-0.328222	0.832838	-0.143643	0	0	-0.573569	0.255472	0.553426	-0.558719	-0.366946	-0.746651	1.97339	0.62256	0	0	0.68216	-0.16002	0.729498	0.932387	0.67496	0	0
2.24	2.8871	1.30254	-1.31411	0.738125	1.60914	1.01071	0.201733	0.105429	-0.192125	0.678592	-0.216601	0	0	-0.331898	-0.117149	-0.301405	0.896836	-0.163435	0	0	-0.575491	0.260725	0.553261	-0.5624	-0.367256	-0.74888	1.97448	0.592533	0	0	0.687915	-0.159524	0.738841	0.929761	0.662753	0	0
2.25	2.87707	1.30501	-1.29951	0.739481	1.61851	1.01142	0.195314	0.107501	-0.202187	0.678141	-0.211811	0	0	-0.298596	-0.124655	-0.273913	0.957905	-0.176973	0	0	-0.575503	0.264326	0.55311	-0.565396	-0.366296	-0.750775	1.97636	0.587582	0	0	0.691176	-0.159063	0.742416	0.929434	0.658884	0	0
2.26	2.86901	1.30832	-1.28861	0.741044	1.62785	1.01193	0.190679	0.109278	-0.210404	0.680713	-0.205364	0	0	-0.265769	-0.130106	-0.248419	1.01333	-0.179018	0	0	-0.571689	0.267267	0.546809	-0.561072	-0.369661	-0.742898	1.97393	0.583728	0	0	0.690719	-0.163694	0.742069	0.930233	0.655241	0	0
2.27	2.86473	1.31024	-1.28393	0.742791	1.63713	1.0124	0.185465	0.110634	-0.216349	0.685639	-0.198333	0	0	-0.237423	-0.133912	-0.227666	1.06211	-0.165959	0	0	-0.572065	0.267471	0.547385	-0.562794	-0.371423	-0.741188	1.97548	0.578758	0	0	0.691687	-0.165989	0.741809	0.933325	0.651469	0	0
2.28	2.86579	1.31122	-1.28783	0.744764	1.6464	1.01294	0.179456	0.111188	-0.219025	0.691357	-0.191778	0	0	-0.213438	-0.135476	-0.213534	1.1041	-0.145446	0	0	-0.572755	0.265178	0.546999	-0.56028	-0.375153	-0.735605	1.97456	0.573802	0	0	0.690555	-0.170715	0.738629	0.937954	0.649014	0	0
2.29	2.87324	1.31068	-1.30141	0.746925	1.65561	1.0137	0.171114	0.111081	-0.217428	0.695997	-0.18618	0	0	-0.19342	-0.1345	-0.206308	1.13969	-0.126351	0	0	-0.575619	0.260117	0.54892	-0.556972	-0.378822	-0.729928	1.97344	0.570688	0	0	0.689393	-0.175163	0.735256	0.942571	0.648935	0	0
2.3	2.88532	1.30901	-1.32215	0.749263	1.66484	1.01465	0.161094	0.11051	-0.211967	0.70026	-0.179898	0	0	-0.175637	-0.131623	-0.20509	1.17027	-0.108408	0	0	-0.581479	0.252334	0.556325	-0.557502	-0.380407	-0.729089	1.9747	0.568932	0	0	0.689762	-0.177155	0.733904	0.947202	0.652381	0	0
2.31	2.90059	1.3068	-1.34734	0.751704	1.67413	1.01572	0.150151	0.109341	-0.204531	0.704413	-0.174591	0	0	-0.158841	-0.127458	-0.207339	1.19679	-0.0943879	0	0	-0.58725	0.243153	0.563531	-0.556842	-0.38208	-0.727072	1.97498	0.569693	0	0	0.689931	-0.179423	0.732683	0.951041	0.653222	0	0
